# xmcd
#
# Track frame offsets: 
#        150
#        16180
#        31212
#        52409
#        67673
#        82684
#        99534
#        116210
#        130176
#        148327
#        166269
#        185056
#        201084
#        218767
#        235241
#        252224
#        270314
#        283569
#        299822
#        323262
#
# Disc length: 4509 seconds
#
# Revision: 0
# Processed by: cddbd v1.5.1PL0 Copyright (c) Steve Scherf et al.
# Submitted via: ExactAudioCopy v0.95a5
#
DISCID=23119b14
DTITLE=Various Artist - Caribe 2004 [CD2)
DYEAR=2004
DGENRE=Latin
TTITLE0=Don Omar - Dale Don Dale
TTITLE1=Alexis Ramos - Tengo Siete Vidas
TTITLE2=Vicente - Se Me Va La Vida
TTITLE3=Malena Gracia - Bombon Latino
TTITLE4=Isaak - Princesita
TTITLE5=Merche - Abre Tu Mente
TTITLE6=Servando - Tu Me Das Yo Te Doy
TTITLE7=Austin feat. Alex - Despedido
TTITLE8=El Nacho - No Se Que Me Pasa
TTITLE9=Manu Tenorio - Que Sera
TTITLE10=Carlinhos Brown and Dj Nero - Maricaipirinha
TTITLE11=Missiego - Corazon De Verano
TTITLE12=Formula Abierta - Salsa Para Vivir
TTITLE13=Los Guateque - Tinto De Verano
TTITLE14=Melendi - Mi Rumbita Pa Tus Pies
TTITLE15=La Banda Del Capitan Canalla - La Boda Real
TTITLE16=Latin Power MC - Cuchi Cuchi
TTITLE17=Sandra Mars - Amor Sincero
TTITLE18=Fulanito - Callate
TTITLE19=David Blanco - Mueve La Pachanga
EXTD=
EXTT0=
EXTT1=
EXTT2=
EXTT3=
EXTT4=
EXTT5=
EXTT6=
EXTT7=
EXTT8=
EXTT9=
EXTT10=
EXTT11=
EXTT12=
EXTT13=
EXTT14=
EXTT15=
EXTT16=
EXTT17=
EXTT18=
EXTT19=
PLAYORDER=
